<svg width="35" height="35" viewBox="0 0 35 35" fill="none" xmlns="http://www.w3.org/2000/svg">
<path d="M17.5 9.47916V26.9792" stroke="#222222" stroke-linecap="round"/>
<path d="M29.8958 9.47916V26.9792" stroke="#222222" stroke-linecap="round"/>
<path d="M5.10416 9.47916V26.9792" stroke="#222222" stroke-linecap="round"/>
<path d="M29.8958 26.9792C29.8958 26.9792 28.4375 24.0625 23.3333 24.0625C18.2292 24.0625 17.5 26.9792 17.5 26.9792" stroke="#222222" stroke-linecap="round"/>
<path d="M5.10417 26.9792C5.10417 26.9792 6.5625 24.0625 11.6667 24.0625C16.7708 24.0625 17.5 26.9792 17.5 26.9792" stroke="#222222" stroke-linecap="round"/>
<path d="M29.8958 9.47917C29.8958 9.47917 28.4375 6.5625 23.3333 6.5625C18.2292 6.5625 17.5 9.47917 17.5 9.47917" stroke="#222222" stroke-linecap="round"/>
<path d="M5.10417 9.47917C5.10417 9.47917 6.5625 6.5625 11.6667 6.5625C16.7708 6.5625 17.5 9.47917 17.5 9.47917" stroke="#222222" stroke-linecap="round"/>
</svg>
