<svg width="35" height="35" viewBox="0 0 35 35" fill="none" xmlns="http://www.w3.org/2000/svg">
<path d="M15.229 28.2577L16.5986 23.2357C16.6777 22.9457 16.7172 22.8007 16.6422 22.7024C16.5672 22.6042 16.4168 22.6042 16.1162 22.6042H12.5688C12.1699 22.6042 11.9705 22.6042 11.8991 22.4754C11.8277 22.3466 11.9334 22.1774 12.1448 21.8392L14.8344 17.5358C15.0458 17.1976 15.1515 17.0285 15.0801 16.8997C15.0087 16.7708 14.8093 16.7708 14.4104 16.7708H10.1729C9.85632 16.7708 9.69804 16.7708 9.62321 16.667C9.54838 16.5632 9.59843 16.413 9.69854 16.1127L13.7402 3.98773C13.7952 3.82272 13.8227 3.74022 13.8882 3.69303C13.9536 3.64584 14.0406 3.64584 14.2145 3.64584H23.1794C23.5709 3.64584 23.7667 3.64584 23.8385 3.77267C23.9103 3.89949 23.8096 4.06736 23.6081 4.40309L20.1418 10.1803C19.9404 10.516 19.8397 10.6839 19.9115 10.8107C19.9833 10.9375 20.1791 10.9375 20.5706 10.9375H23.0625C23.4988 10.9375 23.717 10.9375 23.7861 11.0757C23.8552 11.2139 23.7243 11.3884 23.4625 11.7375L20.2875 15.9708L20.2875 15.9708C20.0257 16.3199 19.8948 16.4945 19.9639 16.6326C20.033 16.7708 20.2512 16.7708 20.6875 16.7708H24.4891C24.9374 16.7708 25.1616 16.7708 25.2299 16.9118C25.2982 17.0528 25.1593 17.2288 24.8815 17.5807L16.1038 28.6991C15.5126 29.4479 15.217 29.8223 15.0347 29.7304C14.8524 29.6384 14.9779 29.1782 15.229 28.2577Z" stroke="#222222"/>
</svg>
