<svg width="35" height="35" viewBox="0 0 35 35" fill="none" xmlns="http://www.w3.org/2000/svg">
<rect x="18.9583" y="20.4167" width="2.91667" height="2.91667" rx="1" fill="#222222"/>
<path d="M14.5833 20.4167H8.75" stroke="#222222" stroke-linecap="round"/>
<path d="M11.6667 17.5L11.6667 23.3333" stroke="#222222" stroke-linecap="round"/>
<rect x="23.3333" y="17.5" width="2.91667" height="2.91667" rx="1" fill="#222222"/>
<path d="M20.4167 11.6667V11.6667C20.4167 10.3688 20.4167 9.71986 20.0948 9.22342C20.0311 9.12531 19.959 9.03298 19.8793 8.94747C19.4758 8.51476 18.8462 8.35737 17.5871 8.04259L17.5 8.02082C16.1559 7.68479 15.4838 7.51678 15.0698 7.03747C15.0266 6.98748 14.9859 6.93538 14.9479 6.88137C14.5833 6.36347 14.5833 5.67072 14.5833 4.28523V2.91666" stroke="#222222" stroke-linecap="round"/>
<path d="M4.375 20.4167C4.375 16.6851 4.375 14.8193 5.27908 13.5339C5.51183 13.203 5.78334 12.9068 6.08667 12.6529C7.26489 11.6667 8.9752 11.6667 12.3958 11.6667H22.6042C26.0248 11.6667 27.7351 11.6667 28.9133 12.6529C29.2167 12.9068 29.4882 13.203 29.7209 13.5339C30.625 14.8193 30.625 16.6851 30.625 20.4167C30.625 24.1483 30.625 26.0141 29.7209 27.2994C29.4882 27.6303 29.2167 27.9265 28.9133 28.1804C27.7351 29.1667 26.0248 29.1667 22.6042 29.1667H12.3958C8.9752 29.1667 7.26489 29.1667 6.08667 28.1804C5.78334 27.9265 5.51183 27.6303 5.27908 27.2994C4.375 26.0141 4.375 24.1483 4.375 20.4167Z" stroke="#222222"/>
</svg>
