<svg width="35" height="35" viewBox="0 0 35 35" fill="none" xmlns="http://www.w3.org/2000/svg">
<path d="M4.375 13.6667C4.375 12.7238 4.375 12.2524 4.66789 11.9595C4.96079 11.6667 5.43219 11.6667 6.375 11.6667H28.625C29.5678 11.6667 30.0392 11.6667 30.3321 11.9595C30.625 12.2524 30.625 12.7238 30.625 13.6667V16.9583C30.625 17.9011 30.625 18.3725 30.3321 18.6654C30.0392 18.9583 29.5678 18.9583 28.625 18.9583H28.25C27.3072 18.9583 26.8358 18.9583 26.5429 19.2512C26.25 19.5441 26.25 20.0155 26.25 20.9583V27.1667C26.25 28.1095 26.25 28.5809 25.9571 28.8738C25.6642 29.1667 25.1928 29.1667 24.25 29.1667H10.75C9.80719 29.1667 9.33579 29.1667 9.04289 28.8738C8.75 28.5809 8.75 28.1095 8.75 27.1667V20.9583C8.75 20.0155 8.75 19.5441 8.45711 19.2512C8.16421 18.9583 7.69281 18.9583 6.75 18.9583H6.375C5.43219 18.9583 4.96079 18.9583 4.66789 18.6654C4.375 18.3725 4.375 17.9011 4.375 16.9583V13.6667Z" stroke="#222222"/>
<path d="M7.29166 18.9583H27.7083" stroke="#222222" stroke-linecap="round"/>
<path d="M17.5 10.2083L17.5 29.1667" stroke="#222222" stroke-linecap="round"/>
<path d="M17.5 10.2083L15.6903 8.39868C14.4828 7.19115 13.0107 6.28136 11.3907 5.74134L9.92412 5.25249C8.62906 4.8208 7.29166 5.78474 7.29166 7.14985V8.76681C7.29166 9.62767 7.84252 10.392 8.65921 10.6642L11.6667 11.6667" stroke="#222222" stroke-linecap="round"/>
<path d="M17.5 10.2083L19.3097 8.39868C20.5172 7.19115 21.9893 6.28136 23.6093 5.74134L25.0759 5.25249C26.3709 4.8208 27.7083 5.78474 27.7083 7.14985V8.76681C27.7083 9.62767 27.1575 10.392 26.3408 10.6642L23.3333 11.6667" stroke="#222222" stroke-linecap="round"/>
</svg>
