<svg width="35" height="35" viewBox="0 0 35 35" fill="none" xmlns="http://www.w3.org/2000/svg">
<path d="M21.1458 30.625V22.875C21.1458 22.3227 20.6981 21.875 20.1458 21.875H14.8542C14.3019 21.875 13.8542 22.3227 13.8542 22.875V30.625" stroke="#222222" stroke-linecap="round" stroke-linejoin="round"/>
<path d="M7.29167 16.0417V26.625C7.29167 28.5106 7.29167 29.4534 7.87746 30.0392C8.46324 30.625 9.40605 30.625 11.2917 30.625H23.7083C25.594 30.625 26.5368 30.625 27.1226 30.0392C27.7083 29.4534 27.7083 28.5106 27.7083 26.625V16.0417" stroke="#222222"/>
<path d="M6.91293 5.88993C7.09482 5.16237 7.18577 4.79859 7.45703 4.58679C7.72829 4.375 8.10327 4.375 8.85322 4.375H26.1468C26.8967 4.375 27.2717 4.375 27.543 4.58679C27.8142 4.79859 27.9052 5.16237 28.0871 5.88993L30.0159 13.6053C30.2902 14.7026 30.4274 15.2513 30.1538 15.6286C30.1399 15.6478 30.1253 15.6666 30.11 15.6848C29.8103 16.0417 29.238 16.0417 28.0935 16.0417V16.0417C26.5681 16.0417 25.8054 16.0417 25.2662 15.6267C25.2166 15.5885 25.1688 15.548 25.123 15.5054C24.625 15.0417 24.5011 14.2981 24.2532 12.8108V12.8108C24.1834 12.392 24.1485 12.1826 24.0719 12.1754C24.0656 12.1748 24.0594 12.1748 24.0531 12.1754C23.9765 12.1826 23.9416 12.392 23.8718 12.8108L23.7529 13.5243C23.6195 14.3249 23.5527 14.7252 23.3737 15.0372C23.1411 15.4425 22.7739 15.7536 22.3359 15.9164C21.9987 16.0417 21.5929 16.0417 20.7813 16.0417V16.0417C19.9696 16.0417 19.5638 16.0417 19.2266 15.9164C18.7886 15.7536 18.4214 15.4425 18.1888 15.0372C18.0098 14.7252 17.943 14.3249 17.8096 13.5243L17.6907 12.8108C17.6209 12.392 17.586 12.1826 17.5094 12.1754C17.5031 12.1748 17.4969 12.1748 17.4906 12.1754C17.414 12.1826 17.3791 12.392 17.3093 12.8108L17.1904 13.5243C17.057 14.3249 16.9902 14.7252 16.8112 15.0372C16.5786 15.4425 16.2114 15.7536 15.7734 15.9164C15.4362 16.0417 15.0304 16.0417 14.2188 16.0417V16.0417C13.4071 16.0417 13.0013 16.0417 12.6641 15.9164C12.2261 15.7536 11.8589 15.4425 11.6263 15.0372C11.4473 14.7252 11.3805 14.3249 11.2471 13.5243L11.1282 12.8108C11.0584 12.392 11.0235 12.1826 10.9469 12.1754C10.9406 12.1748 10.9344 12.1748 10.9281 12.1754C10.8515 12.1826 10.8166 12.392 10.7468 12.8108V12.8108C10.4989 14.2981 10.375 15.0417 9.87698 15.5054C9.83119 15.548 9.78342 15.5885 9.73383 15.6267C9.19456 16.0417 8.43188 16.0417 6.90654 16.0417V16.0417C5.76199 16.0417 5.18971 16.0417 4.88999 15.6848C4.87471 15.6666 4.86009 15.6478 4.84615 15.6286C4.5726 15.2513 4.70976 14.7026 4.98408 13.6053L6.91293 5.88993Z" stroke="#222222"/>
</svg>
