<svg width="35" height="35" viewBox="0 0 35 35" fill="none" xmlns="http://www.w3.org/2000/svg">
<path d="M15.7111 29.7306L15.9348 29.2834H15.9348L15.7111 29.7306ZM19.2889 29.7306L19.0652 29.2834L19.2889 29.7306ZM19.3111 29.7195L19.5347 30.1667L19.3111 29.7195ZM20.463 27.9317L19.9644 27.8943L20.463 27.9317ZM20.244 29.1074L20.6592 29.386L20.244 29.1074ZM14.537 27.9317L14.0384 27.9692L14.537 27.9317ZM15.6889 29.7195L15.4653 30.1667L15.6889 29.7195ZM14.756 29.1074L14.3408 29.386L14.756 29.1074ZM12.4779 21.7495L12.1906 22.1587L12.4779 21.7495ZM13.2277 22.6223L12.7688 22.8209L13.2277 22.6223ZM12.982 22.1494L12.5944 22.4652L12.982 22.1494ZM22.5221 21.7495L22.2348 21.3403L22.5221 21.7495ZM22.018 22.1494L21.6303 21.8336L22.018 22.1494ZM25.75 14.5833C25.75 17.3773 24.3616 19.8471 22.2348 21.3403L22.8094 22.1587C25.1914 20.4863 26.75 17.7169 26.75 14.5833H25.75ZM17.5 6.33334C22.0563 6.33334 25.75 10.027 25.75 14.5833H26.75C26.75 9.47471 22.6086 5.33334 17.5 5.33334V6.33334ZM9.25 14.5833C9.25 10.027 12.9437 6.33334 17.5 6.33334V5.33334C12.3914 5.33334 8.25 9.47471 8.25 14.5833H9.25ZM12.7652 21.3403C10.6384 19.8471 9.25 17.3773 9.25 14.5833H8.25C8.25 17.7169 9.80859 20.4863 12.1906 22.1587L12.7652 21.3403ZM15.0356 27.8943C14.8937 26.007 14.4373 24.1579 13.6865 22.4236L12.7688 22.8209C13.4753 24.453 13.9049 26.1931 14.0384 27.9692L15.0356 27.8943ZM15.9348 29.2834L15.9125 29.2722L15.4653 30.1667L15.4875 30.1778L15.9348 29.2834ZM19.0652 29.2834C18.0799 29.776 16.9201 29.776 15.9348 29.2834L15.4875 30.1778C16.7544 30.8112 18.2456 30.8112 19.5125 30.1778L19.0652 29.2834ZM19.0875 29.2722L19.0652 29.2834L19.5125 30.1778L19.5347 30.1667L19.0875 29.2722ZM21.3135 22.4236C20.5627 24.1579 20.1063 26.007 19.9644 27.8943L20.9616 27.9692C21.0951 26.1931 21.5247 24.453 22.2312 22.8209L21.3135 22.4236ZM19.5347 30.1667C19.7883 30.0399 20.0093 29.9299 20.1829 29.822C20.364 29.7094 20.531 29.577 20.6592 29.386L19.8289 28.8288C19.81 28.8569 19.7725 28.8996 19.6549 28.9728C19.5298 29.0505 19.3578 29.1371 19.0875 29.2722L19.5347 30.1667ZM19.9644 27.8943C19.9398 28.2219 19.9233 28.4358 19.8972 28.5963C19.8719 28.752 19.8447 28.8052 19.8289 28.8288L20.6592 29.386C20.7905 29.1904 20.8488 28.9747 20.8842 28.7567C20.9189 28.5437 20.9383 28.2792 20.9616 27.9692L19.9644 27.8943ZM14.0384 27.9692C14.0617 28.2792 14.0811 28.5437 14.1158 28.7567C14.1512 28.9747 14.2095 29.1904 14.3408 29.386L15.1711 28.8288C15.1553 28.8052 15.1281 28.752 15.1028 28.5963C15.0767 28.4358 15.0602 28.2219 15.0356 27.8943L14.0384 27.9692ZM15.9125 29.2722C15.6422 29.1371 15.4702 29.0505 15.3452 28.9728C15.2275 28.8996 15.19 28.8569 15.1711 28.8288L14.3408 29.386C14.469 29.577 14.636 29.7094 14.8171 29.822C14.9907 29.9299 15.2117 30.0399 15.4653 30.1667L15.9125 29.2722ZM12.1906 22.1587C12.4976 22.3743 12.5619 22.4254 12.5944 22.4652L13.3697 21.8336C13.2273 21.6588 13.0138 21.5149 12.7652 21.3403L12.1906 22.1587ZM13.6865 22.4236C13.5908 22.2024 13.5104 22.0064 13.3697 21.8336L12.5944 22.4652C12.6285 22.507 12.6536 22.5547 12.7688 22.8209L13.6865 22.4236ZM22.2348 21.3403C21.9862 21.5149 21.7727 21.6588 21.6303 21.8336L22.4056 22.4652C22.4381 22.4254 22.5024 22.3743 22.8094 22.1587L22.2348 21.3403ZM22.2312 22.8209C22.3464 22.5547 22.3715 22.507 22.4056 22.4652L21.6303 21.8336C21.4896 22.0064 21.4092 22.2024 21.3135 22.4236L22.2312 22.8209Z" fill="#222222"/>
<path d="M21.2917 24V24C18.9513 24.9362 16.3404 24.9362 14 24V24" stroke="#222222"/>
<path d="M16.5 17.5V13.25C16.5 12.5596 15.9404 12 15.25 12V12C14.5596 12 14 12.5596 14 13.25V13.25C14 13.9404 14.5596 14.5 15.25 14.5H19.75C20.4404 14.5 21 13.9404 21 13.25V13.25C21 12.5596 20.4404 12 19.75 12V12C19.0596 12 18.5 12.5596 18.5 13.25V17.5" stroke="#222222" stroke-linecap="round"/>
</svg>
