<svg width="35" height="35" viewBox="0 0 35 35" fill="none" xmlns="http://www.w3.org/2000/svg">
<path d="M4.875 11.6667C4.875 10.2776 4.87606 9.28611 4.97733 8.53292C5.07666 7.79412 5.26407 7.35992 5.58283 7.04117C5.90158 6.72242 6.33578 6.535 7.07458 6.43567C7.82777 6.33441 8.81927 6.33334 10.2083 6.33334H24.7917C26.1807 6.33334 27.1722 6.33441 27.9254 6.43567C28.6642 6.535 29.0984 6.72242 29.4172 7.04117C29.7359 7.35992 29.9233 7.79412 30.0227 8.53292C30.1239 9.28611 30.125 10.2776 30.125 11.6667V24.2917H4.875V11.6667Z" stroke="#222222"/>
<path d="M5.34722 24.2917C4.53414 24.2917 3.875 24.9508 3.875 25.7639C3.875 27.1139 4.96942 28.2083 6.31944 28.2083H28.6806C30.0306 28.2083 31.125 27.1139 31.125 25.7639C31.125 24.9508 30.4659 24.2917 29.6528 24.2917H5.34722Z" stroke="#222222"/>
</svg>
