<svg width="35" height="35" viewBox="0 0 35 35" fill="none" xmlns="http://www.w3.org/2000/svg">
<path d="M5.83333 17.1253C5.83333 15.2397 5.83333 14.2968 6.41912 13.7111C7.0049 13.1253 7.94771 13.1253 9.83333 13.1253H25.1667C27.0523 13.1253 27.9951 13.1253 28.5809 13.7111C29.1667 14.2968 29.1667 15.2397 29.1667 17.1253V24.6253C29.1667 27.4537 29.1667 28.8679 28.288 29.7466C27.4093 30.6253 25.9951 30.6253 23.1667 30.6253H11.8333C9.00491 30.6253 7.59069 30.6253 6.71201 29.7466C5.83333 28.8679 5.83333 27.4537 5.83333 24.6253V17.1253Z" stroke="#222222"/>
<path d="M24.0624 13.125L24.1755 12.22C24.5532 9.19892 23.1937 6.22337 20.6628 4.53111V4.53111C17.6493 2.51618 13.6606 2.76453 10.9203 5.13771L9.7269 6.17121" stroke="#222222" stroke-linecap="round"/>
<circle cx="17.5" cy="21.875" r="2.91667" fill="#222222"/>
</svg>
