<svg width="10" height="10" viewBox="0 0 10 10" fill="none" xmlns="http://www.w3.org/2000/svg">
<path d="M4.04897 0.927049C4.34833 0.0057385 5.65173 0.00573921 5.95109 0.92705L6.34711 2.1459C6.48099 2.55792 6.86494 2.83688 7.29817 2.83688H8.57974C9.54847 2.83688 9.95124 4.0765 9.16753 4.6459L8.13071 5.39919C7.78023 5.65383 7.63357 6.1052 7.76744 6.51722L8.16347 7.73607C8.46282 8.65738 7.40834 9.4235 6.62463 8.8541L5.58782 8.10081C5.23733 7.84617 4.76273 7.84617 4.41225 8.10081L3.37543 8.8541C2.59172 9.4235 1.53724 8.65738 1.83659 7.73607L2.23262 6.51722C2.36649 6.1052 2.21983 5.65383 1.86935 5.39919L0.832531 4.6459C0.0488179 4.0765 0.451594 2.83688 1.42032 2.83688H2.70189C3.13512 2.83688 3.51907 2.55792 3.65295 2.1459L4.04897 0.927049Z" fill="#EBFF00"/>
</svg>
